# xmcd
#
# Track frame offsets: 
#        150
#        20798
#        37406
#        61928
#
# Disc length: 1094 seconds
#
# Revision: 1
# Processed by: cddbd v1.5.1PL2 Copyright (c) Steve Scherf et al.
# Submitted via: ExactAudioCopy v0.95b3
#
DISCID=36044404
DTITLE=P.O.D. - goodbye for now
DYEAR=2005
DGENRE=Alternative
TTITLE0=Goodbye for now
TTITLE1=Why wait?
TTITLE2=Lights out
TTITLE3=Goodbye for now (Video)
EXTD=YEAR: 2005
EXTT0=
EXTT1=
EXTT2=
EXTT3=
PLAYORDER=
